<svg width="411" height="89" viewBox="0 0 411 89" fill="none" xmlns="http://www.w3.org/2000/svg">
<path d="M100.799 86.4631C101.605 85.4006 103.814 82.3589 107.786 76.8413C108.661 75.6264 114.432 67.6885 120.612 59.2016L131.849 43.7707L129.451 40.2971C128.133 38.3867 126.864 36.5846 126.632 36.2926C126.076 35.5948 119.062 25.7854 117.015 22.843C116.135 21.5777 115.328 20.4628 115.223 20.3655C115.117 20.2681 114.323 19.1532 113.459 17.8879C112.594 16.6226 111.791 15.5077 111.673 15.4104C111.556 15.313 111.097 14.6361 110.654 13.9061C110.211 13.1761 109.703 12.5789 109.524 12.5789C109.346 12.5789 109.2 12.4159 109.2 12.2166C109.2 12.0174 107.53 9.56354 105.489 6.76359C103.448 3.96364 101.778 1.57831 101.778 1.46284C101.778 1.34738 106.668 1.25661 112.645 1.26115L123.512 1.26939L127.467 6.83565C129.642 9.89709 131.866 13.039 132.409 13.8176C132.952 14.5963 135.217 17.7817 137.443 20.8964C139.669 24.011 141.949 27.2363 142.509 28.0636C143.454 29.4569 144.186 29.9828 144.186 29.268C144.186 29.1032 144.464 28.6346 144.804 28.2267C145.144 27.8188 146.695 25.6327 148.25 23.3686C149.805 21.1046 152.15 17.7521 153.462 15.9187C154.774 14.0852 155.848 12.5059 155.848 12.4091C155.848 12.3122 156.084 11.9525 156.374 11.6096C156.663 11.2667 158.376 8.83599 160.18 6.20801L163.462 1.42987L173.791 1.33604C179.472 1.28443 184.12 1.33836 184.12 1.45588C184.12 1.5734 181.971 4.64178 179.344 8.27451C176.718 11.9072 174.345 15.198 174.071 15.5873C171.029 19.9095 168.753 23.0527 168.56 23.197C168.429 23.2943 167.915 24.0254 167.417 24.8216C166.919 25.6179 166.289 26.4939 166.016 26.7683C165.743 27.0427 165.212 27.7451 164.837 28.329C164.462 28.913 161.964 32.4117 159.286 36.1039C156.608 39.796 154.493 43.0147 154.586 43.2565C154.678 43.4983 155.723 45.0166 156.907 46.6307C159.489 50.151 167.823 61.6451 168.57 62.7172C168.862 63.1352 170.344 65.2049 171.864 67.3163C173.384 69.4278 174.85 71.4739 175.123 71.8632C175.396 72.2526 176.309 73.5267 177.153 74.6947C183.88 84.008 186.24 87.3244 186.24 87.4628C186.24 87.5512 181.273 87.5814 175.203 87.53L164.166 87.4365L161.862 84.1947C160.595 82.4117 158.286 79.0909 156.731 76.8152C155.176 74.5394 153.507 72.1518 153.021 71.5093C152.535 70.8669 150.865 68.474 149.31 66.1919C147.755 63.9097 146.324 61.8631 146.129 61.6438C145.935 61.4245 145.219 60.4092 144.539 59.3876C143.859 58.366 143.143 57.5317 142.949 57.5335C142.754 57.5353 141.718 58.8491 140.646 60.4528C139.574 62.0566 136.871 66.0419 134.639 69.309C132.406 72.5761 130.421 75.5159 130.227 75.8419C130.032 76.1678 129.714 76.6236 129.52 76.8546C129.325 77.0856 127.583 79.6009 125.649 82.444L122.131 87.6134H111.029H99.9273L100.799 86.4631Z" fill="white"/>
<path d="M0 87.4658C0 87.2253 1.59634 83.5385 3.49945 79.3835C4.10154 78.069 4.59415 76.9045 4.59415 76.7958C4.59415 76.6871 5.23027 75.2447 6.00774 73.5904C6.78521 71.9361 7.42132 70.5148 7.42132 70.4319C7.42132 70.3489 8.21647 68.5884 9.18831 66.5196C10.1601 64.4508 10.9553 62.7059 10.9553 62.642C10.9553 62.5781 11.5914 61.1532 12.3689 59.4755C13.1463 57.7978 13.7825 56.3553 13.7825 56.27C13.7825 56.1847 14.2773 55.0395 14.8821 53.7249C15.4868 52.4104 16.282 50.658 16.649 49.8307C17.0161 49.0034 17.6345 47.6097 18.0232 46.7338C18.412 45.8578 19.038 44.4641 19.4144 43.6368C20.1218 42.0822 25.8635 29.1473 26.6808 27.2672C26.9347 26.6833 27.5374 25.3294 28.0201 24.2588C29.6936 20.5473 30.3372 19.1023 32.5125 14.1716C33.7148 11.4463 35.0247 8.49976 35.4233 7.62377C35.822 6.74778 36.5898 4.99579 37.1297 3.73047L38.1112 1.42988L47.7928 1.33591L57.4744 1.24194L58.4615 3.45953C59.0044 4.67921 59.9082 6.63537 60.4698 7.80656C61.0314 8.97776 61.491 10.056 61.491 10.2027C61.491 10.3494 62.1043 11.7802 62.854 13.3823C64.3703 16.6229 64.429 16.7536 67.5017 23.7279C69.7082 28.7361 70.4949 30.4776 72.6639 35.1558C73.3217 36.5746 73.8598 37.7978 73.8598 37.8742C73.8598 37.9505 74.3214 39.0195 74.8856 40.2497C75.4498 41.48 77.2931 45.5923 78.982 49.3883C80.6708 53.1842 82.4534 57.166 82.9433 58.2367C83.4331 59.3074 84.1165 60.8204 84.4618 61.5991C84.8072 62.3778 85.5845 64.0903 86.1893 65.4049C86.7941 66.7194 87.2889 67.8647 87.2889 67.9499C87.2889 68.0352 87.925 69.4777 88.7025 71.1554C89.48 72.8331 90.1161 74.2579 90.1161 74.3216C90.1161 74.3853 90.8148 75.9288 91.6687 77.7515C92.5226 79.5743 93.6506 82.1009 94.1752 83.3662C94.6999 84.6315 95.2735 85.8181 95.4498 86.003C95.6261 86.188 95.7704 86.6259 95.7704 86.9763C95.7704 87.5749 95.1634 87.6134 85.7415 87.6134H75.7126L75.2806 86.4631C74.8508 85.3185 74.7303 85.0201 73.7434 82.6583C73.4588 81.977 72.2428 79.0305 71.0413 76.1105C69.8397 73.1905 68.6713 70.3634 68.4448 69.8281L68.033 68.8548L47.7106 68.8639L27.3882 68.873L26.8106 70.1912C26.493 70.9161 24.9271 74.6947 23.3308 78.588C21.7346 82.4813 20.2461 86.1048 20.0231 86.6401L19.6177 87.6134H9.80883C4.41397 87.6134 0 87.547 0 87.4658V87.4658ZM61.491 53.6726C61.491 53.1069 60.2019 49.6855 59.0099 47.0877C58.8313 46.6984 58.2094 45.1569 57.628 43.6622C57.0466 42.1675 56.2593 40.2562 55.8784 39.4149C55.4976 38.5737 54.05 35.0981 52.6615 31.6915C51.2731 28.2848 49.9287 25.0198 49.6741 24.4358C49.4194 23.8518 48.9284 22.697 48.5828 21.8697C48.2373 21.0424 47.8545 20.3655 47.7322 20.3655C47.6099 20.3655 46.4144 23.0333 45.0756 26.2939C42.5396 32.47 41.5227 34.9197 40.9986 36.1157C40.6218 36.9755 39.8924 38.7577 39.0432 40.8938C38.6949 41.7698 38.0372 43.3128 37.5816 44.3228C37.126 45.3327 36.7532 46.2573 36.7532 46.3773C36.7532 46.5669 36.0589 48.2336 34.9828 50.6271C34.5027 51.6949 33.5727 54.0577 33.5727 54.2096C33.5727 54.2832 39.8543 54.3434 47.5318 54.3434C60.9983 54.3434 61.491 54.3197 61.491 53.6726Z" fill="white"/>
<path d="M195.782 44.4334V1.25317H205.323H214.865V44.4334V87.6137H205.323H195.782V44.4334Z" fill="white"/>
<path d="M264.694 88.4382C256.841 87.095 251.617 85.1434 245.7 81.3424C242.117 79.0407 241.476 78.5213 238.366 75.4017C235.624 72.6512 233.948 70.7023 233.948 70.2637C233.948 70.1052 233.809 69.9225 233.638 69.8576C233.021 69.6236 229.721 63.3973 228.666 60.4776C226.613 54.7964 225.623 48.4144 225.919 42.787C226.297 35.6251 227.585 30.3225 230.291 24.7897C231.77 21.7659 231.907 21.54 234.161 18.4293C239.216 11.4537 245.709 6.61572 254.976 2.91899C260.428 0.744068 270.491 -0.47523 277.627 0.174555C282.356 0.605165 288.915 1.97008 290.546 2.86315C291.062 3.14553 291.708 3.37656 291.982 3.37656C292.778 3.37656 298.209 6.26426 301.279 8.31972C305.877 11.3972 310.868 16.7281 314.048 21.9582C318.537 29.3408 320.697 39.3529 319.823 48.7251C318.32 64.8368 309.236 77.5617 294.203 84.614C292.648 85.3434 290.898 86.0667 290.315 86.2214C289.732 86.376 288.38 86.7558 287.311 87.0654C280.731 88.9707 271.192 89.5497 264.694 88.4382ZM277.313 72.2393C282.64 71.427 286.199 69.9438 290.174 66.8806C294.966 63.188 298.475 57.3263 299.852 50.7141C300.528 47.4687 300.538 41.8631 299.874 38.3876C298.202 29.6341 292.558 22.3246 284.72 18.7617C279.189 16.2473 271.111 15.6774 265.226 17.3863C259.183 19.1408 254.498 22.2801 251.007 26.9133C248.06 30.8245 246.609 34.5678 245.752 40.4711C245.214 44.1729 245.214 44.7721 245.745 48.4706C246.638 54.691 248.273 58.7402 251.439 62.5743C255.984 68.0776 261.321 71.1367 268.228 72.1973C272.258 72.8162 273.491 72.8219 277.313 72.2393L277.313 72.2393Z" fill="white"/>
<path d="M332.193 44.4334V1.25317H340.087H347.982L351.307 5.22691C353.137 7.41247 355.402 10.1599 356.342 11.3323C357.282 12.5047 358.554 14.0913 359.169 14.8581C359.784 15.6249 360.875 16.9386 361.594 17.7776C362.734 19.1093 369.927 27.9193 375.1 34.3204C376.056 35.5026 376.931 36.5495 377.044 36.6468C377.222 36.7989 378.737 38.6653 380.607 41.0357C380.899 41.4057 381.377 41.9659 381.668 42.2807C381.96 42.5956 382.753 43.5671 383.431 44.4397C384.11 45.3122 384.99 46.3857 385.387 46.8252C385.785 47.2647 387.218 49.0455 388.572 50.7826C389.925 52.5198 391.232 53.952 391.475 53.9654C391.825 53.9846 391.917 48.4931 391.917 27.6214V1.25317H401.458H411V44.4334V87.6137H403.072H395.143L392.205 84.0295C390.589 82.0582 388.34 79.3107 387.207 77.9241C384.753 74.9191 382.686 72.4312 382.198 71.8969C382.004 71.6839 380.891 70.315 379.725 68.855C378.559 67.3951 377.52 66.1209 377.416 66.0236C377.312 65.9262 376.861 65.3688 376.415 64.7848C375.968 64.2008 375.097 63.1655 374.479 62.4842C373.861 61.8029 372.806 60.5287 372.134 59.6527C371.462 58.7767 370.058 57.0247 369.013 55.7594C367.969 54.4941 366.589 52.8217 365.946 52.0431C363.677 49.2949 362.395 47.727 361.171 46.2036C360.491 45.3567 358.98 43.5325 357.814 42.1499C356.648 40.7673 354.845 38.5654 353.808 37.2566C352.771 35.9479 351.777 34.8771 351.599 34.8771C351.407 34.8771 351.276 45.5587 351.276 61.2454V87.6137H341.734H332.193V44.4334Z" fill="white"/>
<path d="M266.442 64.1522C263.477 63.1409 260.926 61.5281 258.588 59.187C254.646 55.2389 252.652 50.4338 252.652 44.8815C252.652 40.7055 253.866 36.7699 256.22 33.314C257.304 31.7229 259.927 29.1408 261.574 28.0451C266.383 24.8447 272.094 23.8187 277.655 25.1563C281.489 26.0787 284.682 27.9432 287.548 30.9334C291.231 34.7773 293.126 39.5157 293.126 44.8815C293.125 50.2956 291.259 54.9569 287.537 58.8405C285.924 60.524 284.379 61.7351 282.619 62.6958C281.287 63.4228 279.601 64.1338 279.485 64.0174C279.446 63.9783 279.483 62.4116 279.569 60.5358C279.713 57.368 279.705 57.0819 279.46 56.5145C279.314 56.1785 279.008 55.7873 278.779 55.645C278.132 55.2428 277.996 54.9983 277.996 54.2298V53.5166L278.765 53.2027C280.798 52.3723 284.128 50.5861 284.559 50.0941C285.917 48.5445 286.167 43.4696 284.973 41.6633C283.851 39.9643 283.635 39.0092 283.879 36.8111C284.018 35.5675 284.015 35.068 283.87 34.4153C283.709 33.6977 283.64 33.5907 283.339 33.5907C283.148 33.5907 282.572 33.913 282.059 34.3069C280.283 35.6701 280.686 35.5953 274.483 35.7121C267.929 35.8354 267.546 35.795 265.478 34.762C263.857 33.9526 263.426 33.8702 263.277 34.3416C263.223 34.5126 263.225 35.9808 263.282 37.6042C263.381 40.4036 263.371 40.5747 263.098 40.9224C261.733 42.6595 261.361 46.5519 262.342 48.8351C263.032 50.4415 265.292 51.9795 269.468 53.6852C269.89 53.8575 269.879 54.0305 269.391 54.9241C268.829 55.9541 268.469 56.096 266.43 56.0892C264.504 56.0828 264.334 56.0219 262.717 54.7564C261.594 53.8777 261.342 53.5931 260.879 52.6801C260.389 51.7142 260.208 51.9486 260.208 53.5464C260.208 54.7857 260.249 54.9953 260.61 55.61C261.404 56.9647 263.053 58.0444 265.605 58.8818C266.471 59.1658 267.307 59.3981 267.463 59.3981C267.734 59.3981 267.748 59.5211 267.748 61.9642C267.748 63.3756 267.698 64.5286 267.638 64.5265C267.578 64.5244 267.039 64.356 266.442 64.1522H266.442Z" fill="white"/>
</svg>
