<svg width="186" height="40" viewBox="0 0 186 40" fill="none" xmlns="http://www.w3.org/2000/svg">
<g clip-path="url(#clip0)">
<path d="M45.3723 38.8599C45.7349 38.3823 46.7291 37.0153 48.5172 34.5354C48.9109 33.9894 51.5089 30.4218 54.2907 26.6075L59.3483 19.6723L58.2694 18.1111C57.6759 17.2525 57.1047 16.4426 57 16.3113C56.7499 15.9977 53.5929 11.589 52.6715 10.2666C52.2753 9.69788 51.9122 9.19681 51.8646 9.15306C51.8171 9.10931 51.4598 8.60824 51.0707 8.03955C50.6816 7.47087 50.3199 6.96979 50.2669 6.92604C50.214 6.8823 50.0075 6.57807 49.8081 6.24998C49.6088 5.9219 49.3799 5.65346 49.2995 5.65346C49.2192 5.65346 49.1534 5.5802 49.1534 5.49066C49.1534 5.40112 48.4018 4.29826 47.4832 3.03985C46.5645 1.78145 45.8129 0.709388 45.8129 0.657493C45.8129 0.605599 48.0141 0.564808 50.7044 0.566846L55.5959 0.57055L57.376 3.07224C58.355 4.44817 59.3561 5.86026 59.6005 6.21022C59.845 6.56017 60.8647 7.99183 61.8666 9.39167C62.8685 10.7915 63.8947 12.2411 64.1471 12.6129C64.5722 13.2391 64.9016 13.4754 64.9016 13.1542C64.9016 13.0801 65.0269 12.8695 65.18 12.6862C65.3331 12.5029 66.0311 11.5203 66.731 10.5028C67.4309 9.48525 68.4867 7.97851 69.0773 7.15449C69.6679 6.33047 70.151 5.62067 70.151 5.57715C70.151 5.53363 70.2575 5.37194 70.3877 5.21783C70.5178 5.06372 71.2889 3.97127 72.1013 2.79015L73.5782 0.642675L78.2275 0.600504C80.7847 0.57731 82.8768 0.601548 82.8768 0.654365C82.8768 0.707183 81.9096 2.08623 80.7273 3.71892C79.5451 5.3516 78.477 6.8306 78.3536 7.00558C76.9846 8.94811 75.9599 10.3608 75.8729 10.4256C75.8142 10.4694 75.5828 10.798 75.3587 11.1558C75.1346 11.5137 74.8507 11.9074 74.7278 12.0307C74.6049 12.1541 74.3662 12.4697 74.1973 12.7322C74.0284 12.9947 72.904 14.5671 71.6987 16.2265C70.4933 17.8859 69.5413 19.3325 69.583 19.4411C69.6247 19.5498 70.0948 20.2322 70.6277 20.9576C71.7899 22.5398 75.5411 27.7057 75.8776 28.1875C76.0089 28.3754 76.676 29.3056 77.3602 30.2546C78.0444 31.2035 78.7046 32.1231 78.8273 32.2981C78.95 32.4731 79.3611 33.0458 79.7409 33.5707C82.7688 37.7564 83.8313 39.2469 83.8313 39.3092C83.8313 39.3489 81.5957 39.3625 78.8633 39.3394L73.8953 39.2973L72.8583 37.8403C72.2879 37.039 71.2486 35.5465 70.5487 34.5237C69.8488 33.5009 69.0972 32.4278 68.8785 32.1391C68.6597 31.8503 67.9081 30.7749 67.2082 29.7492C66.5083 28.7235 65.864 27.8037 65.7765 27.7051C65.689 27.6065 65.3669 27.1502 65.0607 26.6911C64.7545 26.232 64.4324 25.857 64.3449 25.8578C64.2574 25.8586 63.791 26.449 63.3085 27.1698C62.8259 27.8906 61.609 29.6818 60.6042 31.1501C59.5994 32.6185 58.7058 33.9398 58.6183 34.0863C58.5308 34.2328 58.3876 34.4376 58.3001 34.5414C58.2126 34.6453 57.4285 35.7757 56.5576 37.0535L54.9742 39.3769H49.977H44.9798L45.3723 38.8599Z" fill="white"/>
<path d="M0 39.3105C0 39.2025 0.718551 37.5454 1.57519 35.678C1.8462 35.0872 2.06794 34.5639 2.06794 34.515C2.06794 34.4662 2.35427 33.8179 2.70423 33.0744C3.05419 32.3309 3.34052 31.6921 3.34052 31.6548C3.34052 31.6176 3.69844 30.8263 4.13589 29.8965C4.57334 28.9667 4.93125 28.1825 4.93125 28.1538C4.93125 28.125 5.21758 27.4846 5.56754 26.7306C5.9175 25.9766 6.20383 25.3283 6.20383 25.29C6.20383 25.2516 6.42656 24.7369 6.69879 24.1461C6.97101 23.5553 7.32893 22.7677 7.49415 22.3959C7.65937 22.024 7.93772 21.3977 8.1127 21.004C8.28768 20.6103 8.56948 19.9839 8.73892 19.6121C9.05731 18.9134 11.6418 13.1 12.0097 12.255C12.124 11.9925 12.3953 11.3841 12.6126 10.9029C13.3658 9.23479 13.6555 8.58536 14.6347 6.36931C15.1759 5.14445 15.7655 3.82017 15.9449 3.42646C16.1244 3.03276 16.47 2.24535 16.713 1.67667L17.1548 0.642694L21.5128 0.600461L25.8707 0.558228L26.315 1.5549C26.5594 2.10306 26.9662 2.98224 27.219 3.50862C27.4718 4.035 27.6786 4.51962 27.6786 4.58555C27.6786 4.65148 27.9547 5.29454 28.2922 6.01458C28.9747 7.47104 29.0011 7.52976 30.3842 10.6643C31.3774 12.9151 31.7315 13.6979 32.7078 15.8004C33.0039 16.4381 33.2462 16.9878 33.2462 17.0221C33.2462 17.0564 33.4539 17.5369 33.7079 18.0898C33.9618 18.6427 34.7916 20.491 35.5518 22.197C36.312 23.9031 37.1144 25.6927 37.3348 26.1738C37.5553 26.655 37.8629 27.3351 38.0184 27.685C38.1738 28.035 38.5237 28.8047 38.796 29.3955C39.0682 29.9863 39.2909 30.501 39.2909 30.5394C39.2909 30.5777 39.5773 31.226 39.9272 31.98C40.2772 32.734 40.5635 33.3744 40.5635 33.403C40.5635 33.4316 40.878 34.1253 41.2624 34.9445C41.6467 35.7638 42.1545 36.8993 42.3906 37.468C42.6268 38.0367 42.885 38.57 42.9644 38.6531C43.0437 38.7362 43.1087 38.9331 43.1087 39.0905C43.1087 39.3595 42.8354 39.3769 38.5944 39.3769H34.0801L33.8857 38.8599C33.6922 38.3454 33.638 38.2113 33.1938 37.1499C33.0656 36.8436 32.5183 35.5194 31.9775 34.207C31.4366 32.8947 30.9107 31.6241 30.8087 31.3835L30.6234 30.946L21.4757 30.9501L12.3281 30.9542L12.0681 31.5466C11.9252 31.8725 11.2203 33.5707 10.5018 35.3205C9.78329 37.0703 9.1133 38.6988 9.01291 38.9394L8.8304 39.3769H4.4152C1.98684 39.3769 0 39.347 0 39.3105V39.3105ZM27.6786 24.1226C27.6786 23.8683 27.0984 22.3306 26.5618 21.1631C26.4814 20.9881 26.2015 20.2953 25.9398 19.6235C25.6781 18.9517 25.3237 18.0927 25.1523 17.7146C24.9809 17.3365 24.3293 15.7745 23.7043 14.2434C23.0793 12.7123 22.4742 11.2449 22.3595 10.9824C22.2449 10.7199 22.0239 10.201 21.8683 9.82914C21.7128 9.4573 21.5405 9.15308 21.4855 9.15308C21.4304 9.15308 20.8923 10.3521 20.2896 11.8175C19.1481 14.5933 18.6904 15.6943 18.4545 16.2318C18.2849 16.6182 17.9566 17.4192 17.5743 18.3793C17.4175 18.773 17.1215 19.4665 16.9164 19.9204C16.7113 20.3743 16.5435 20.7898 16.5435 20.8438C16.5435 20.929 16.231 21.6781 15.7466 22.7538C15.5305 23.2337 15.1119 24.2957 15.1119 24.3639C15.1119 24.397 17.9394 24.424 21.3953 24.424C27.4569 24.424 27.6786 24.4134 27.6786 24.1226Z" fill="white"/>
<path d="M88.1262 19.97V0.56311H92.4212H96.7161V19.97V39.3768H92.4212H88.1262V19.97Z" fill="white"/>
<path d="M119.145 39.7475C115.611 39.1438 113.259 38.2667 110.596 36.5584C108.983 35.5239 108.694 35.2905 107.294 33.8884C106.06 32.6522 105.306 31.7763 105.306 31.5792C105.306 31.508 105.243 31.4259 105.166 31.3967C104.889 31.2915 103.403 28.4932 102.928 27.181C102.004 24.6276 101.558 21.7593 101.692 19.2301C101.862 16.0113 102.442 13.6281 103.66 11.1414C104.325 9.78243 104.387 9.68088 105.402 8.28285C107.677 5.14775 110.6 2.97336 114.771 1.31191C117.225 0.334413 121.755 -0.213587 124.967 0.0784518C127.096 0.271984 130.048 0.885429 130.782 1.28681C131.014 1.41372 131.305 1.51756 131.429 1.51756C131.787 1.51756 134.231 2.8154 135.613 3.7392C137.683 5.12236 139.929 7.51826 141.361 9.86887C143.382 13.1869 144.354 17.6867 143.96 21.8989C143.284 29.1401 139.195 34.8592 132.428 38.0288C131.728 38.3566 130.941 38.6817 130.678 38.7512C130.416 38.8207 129.807 38.9914 129.326 39.1305C126.364 39.9868 122.07 40.2471 119.145 39.7475ZM124.825 32.4671C127.223 32.102 128.826 31.4354 130.615 30.0587C132.771 28.3991 134.351 25.7646 134.971 22.7929C135.275 21.3342 135.28 18.8149 134.981 17.2528C134.228 13.3187 131.688 10.0335 128.16 8.43223C125.67 7.30215 122.034 7.04602 119.385 7.81409C116.665 8.60259 114.556 10.0136 112.985 12.0959C111.658 13.8537 111.005 15.5361 110.619 18.1893C110.377 19.853 110.377 20.1223 110.616 21.7845C111.018 24.5802 111.754 26.4001 113.179 28.1233C115.225 30.5967 117.627 31.9716 120.736 32.4482C122.55 32.7264 123.105 32.7289 124.825 32.4671L124.825 32.4671Z" fill="white"/>
<path d="M149.528 19.97V0.56311H153.082H156.635L158.132 2.34906C158.956 3.33133 159.976 4.56613 160.399 5.09306C160.822 5.61999 161.394 6.33308 161.671 6.67769C161.948 7.02231 162.439 7.61276 162.762 7.9898C163.276 8.58836 166.514 12.5479 168.842 15.4248C169.272 15.9561 169.666 16.4266 169.717 16.4704C169.797 16.5387 170.479 17.3776 171.321 18.4429C171.452 18.6092 171.667 18.861 171.798 19.0025C171.93 19.144 172.287 19.5806 172.592 19.9728C172.897 20.3649 173.294 20.8474 173.473 21.0449C173.651 21.2424 174.296 22.0428 174.906 22.8235C175.515 23.6043 176.103 24.248 176.213 24.254C176.37 24.2626 176.412 21.7945 176.412 12.414V0.56311H180.706H185.001V19.97V39.3768H181.433H177.864L176.541 37.7659C175.814 36.88 174.801 35.6452 174.292 35.0219C173.187 33.6714 172.256 32.5532 172.037 32.3131C171.95 32.2174 171.449 31.6022 170.924 30.946C170.399 30.2898 169.931 29.7171 169.884 29.6734C169.837 29.6297 169.635 29.3791 169.434 29.1166C169.233 28.8542 168.841 28.3889 168.563 28.0827C168.284 27.7765 167.809 27.2038 167.507 26.8101C167.204 26.4164 166.572 25.629 166.102 25.0603C165.632 24.4916 165.011 23.74 164.721 23.39C163.7 22.1549 163.123 21.4502 162.572 20.7656C162.266 20.3849 161.586 19.565 161.061 18.9437C160.536 18.3223 159.725 17.3326 159.258 16.7444C158.791 16.1563 158.344 15.675 158.264 15.675C158.177 15.675 158.118 20.4757 158.118 27.5259V39.3768H153.823H149.528V19.97Z" fill="white"/>
<path d="M119.932 28.8324C118.598 28.3779 117.449 27.6531 116.397 26.6009C114.623 24.8264 113.725 22.6669 113.725 20.1714C113.725 18.2946 114.272 16.5258 115.331 14.9726C115.819 14.2575 117 13.097 117.741 12.6045C119.906 11.1662 122.477 10.705 124.979 11.3062C126.705 11.7207 128.142 12.5587 129.432 13.9026C131.091 15.6302 131.944 17.7599 131.943 20.1714C131.943 22.6048 131.103 24.6997 129.428 26.4452C128.701 27.2018 128.006 27.7461 127.214 28.1779C126.614 28.5046 125.856 28.8242 125.803 28.7718C125.786 28.7543 125.803 28.0501 125.841 27.2071C125.906 25.7834 125.902 25.6548 125.792 25.3998C125.726 25.2488 125.588 25.0729 125.485 25.009C125.194 24.8282 125.133 24.7183 125.133 24.3729V24.0524L125.479 23.9113C126.394 23.5381 127.893 22.7353 128.087 22.5142C128.699 21.8177 128.811 19.5369 128.274 18.7251C127.768 17.9615 127.671 17.5322 127.781 16.5443C127.843 15.9854 127.842 15.7609 127.777 15.4675C127.705 15.145 127.674 15.0969 127.538 15.0969C127.452 15.0969 127.193 15.2418 126.962 15.4188C126.162 16.0315 126.344 15.9979 123.552 16.0503C120.602 16.1058 120.429 16.0876 119.498 15.6234C118.769 15.2596 118.575 15.2225 118.507 15.4344C118.483 15.5113 118.484 16.1711 118.51 16.9007C118.554 18.1589 118.55 18.2358 118.427 18.3921C117.813 19.1728 117.645 20.9222 118.087 21.9484C118.397 22.6703 119.415 23.3615 121.294 24.1282C121.484 24.2056 121.479 24.2833 121.26 24.685C121.007 25.1479 120.844 25.2117 119.927 25.2086C119.06 25.2058 118.984 25.1784 118.255 24.6096C117.75 24.2147 117.636 24.0868 117.428 23.6764C117.208 23.2423 117.126 23.3477 117.126 24.0658C117.126 24.6228 117.145 24.717 117.307 24.9933C117.665 25.6021 118.407 26.0874 119.556 26.4637C119.945 26.5914 120.322 26.6958 120.392 26.6958C120.514 26.6958 120.52 26.7511 120.52 27.8491C120.52 28.4834 120.498 29.0016 120.471 29.0007C120.443 28.9997 120.201 28.924 119.932 28.8324H119.932Z" fill="white"/>
</g>
<defs>
<clipPath id="clip0">
<rect width="185.001" height="40" fill="white"/>
</clipPath>
</defs>
</svg>
